<!-- Generated by scripts/generate-brand-assets.mjs; do not edit directly. -->
<svg xmlns="http://www.w3.org/2000/svg" viewBox="0 0 1181 638" role="img" aria-labelledby="title desc">
  <title id="title">Hotshot lockup on charcoal</title>
  <desc id="desc">The Hotshot football mark stacked above the uppercase HOTSHOT wordmark on a charcoal background.</desc>
  <rect width="1181" height="638" fill="#1C1C1C" />
  <g transform="translate(430.5 30) scale(0.625)">
    <g id="hotshot-mark">
    <path
      d="M256 66C176 102 122 174 122 256C122 338 176 410 256 446C336 410 390 338 390 256C390 174 336 102 256 66Z"
      fill="none"
      stroke="#DBA73B"
      stroke-width="30"
      stroke-linecap="round"
      stroke-linejoin="round"
    />
    <g fill="none" stroke="#F4ECDA" stroke-width="22" stroke-linecap="round">
      <path d="M256 148V242" />
      <path d="M229 171H283" />
      <path d="M229 198H283" />
      <path d="M229 225H283" />
    </g>
    <path
      d="M160 356L220 306L268 344L352 270"
      fill="none"
      stroke="#DBA73B"
      stroke-width="20"
      stroke-linecap="round"
      stroke-linejoin="round"
    />
  </g>
  </g>
  <g
    id="wordmark"
    aria-label="HOTSHOT"
    fill="none"
    stroke="#F4ECDA"
    stroke-width="24"
    stroke-linecap="square"
    stroke-linejoin="round"
  >
    <g>
      <path d="M170.5 410V526" />
      <path d="M242.5 410V526" />
      <path d="M170.5 468H242.5" />
    </g>
    <g>
      <path d="M316.5 410H352.5Q372.5 410 372.5 430V506Q372.5 526 352.5 526H316.5Q296.5 526 296.5 506V430Q296.5 410 316.5 410Z" />
    </g>
    <g>
      <path d="M422.5 410H502.5" />
      <path d="M462.5 410V526" />
    </g>
    <g>
      <path d="M628.5 410H572.5Q552.5 410 552.5 430V450Q552.5 468 572.5 468H608.5Q628.5 468 628.5 486V506Q628.5 526 608.5 526H552.5" />
    </g>
    <g>
      <path d="M682.5 410V526" />
      <path d="M754.5 410V526" />
      <path d="M682.5 468H754.5" />
    </g>
    <g>
      <path d="M828.5 410H864.5Q884.5 410 884.5 430V506Q884.5 526 864.5 526H828.5Q808.5 526 808.5 506V430Q808.5 410 828.5 410Z" />
    </g>
    <g>
      <path d="M934.5 410H1014.5" />
      <path d="M974.5 410V526" />
    </g>
  </g>
</svg>
